<svg width="24" height="24" viewBox="0 0 24 24" fill="none" xmlns="http://www.w3.org/2000/svg">
<rect width="24" height="24" rx="12" fill="#E5EAFF"/>
<path d="M12.0005 14.5712C14.3629 14.5713 15.9978 15.796 16.5347 16.2421L16.6961 16.3798L16.7597 16.4393C17.0566 16.748 17.0842 17.2443 16.81 17.5868C16.5357 17.9294 16.0564 17.9967 15.7049 17.7557L15.6366 17.703L15.4989 17.5868C15.0594 17.2224 13.8041 16.2852 12.0005 16.285C10.1895 16.285 9.11478 17.0816 8.61216 17.5585L8.43178 17.7401C8.11112 18.0796 7.58276 18.0875 7.25266 17.7577C6.92258 17.4278 6.91491 16.8843 7.23557 16.5448L7.49095 16.2899C8.19255 15.628 9.64467 14.5712 12.0005 14.5712ZM13.6647 9.42867C13.6647 8.48198 12.9189 7.71483 11.9986 7.71482C11.0782 7.71482 10.3325 8.48197 10.3324 9.42867C10.3324 10.3754 11.0782 11.1435 11.9986 11.1435C12.919 11.1435 13.6647 10.3754 13.6647 9.42867ZM15.3318 9.42867C15.3318 11.3222 13.8394 12.8573 11.9986 12.8573C10.1578 12.8573 8.66533 11.3222 8.66533 9.42867C8.6654 7.53521 10.1578 6 11.9986 6C13.8394 6.00001 15.3318 7.53521 15.3318 9.42867Z" fill="#3D29F3"/>
</svg>
