<?xml version="1.0" encoding="UTF-8"?>
<svg width="65px" height="21px" viewBox="0 0 65 21" version="1.1" xmlns="http://www.w3.org/2000/svg" xmlns:xlink="http://www.w3.org/1999/xlink">
    <!-- Generator: Sketch 52.5 (67469) - http://www.bohemiancoding.com/sketch -->
    <title>icon_visa</title>
    <desc>Created with Sketch.</desc>
    <g id="Page-1" stroke="none" stroke-width="1" fill="none" fill-rule="evenodd">
        <g id="Главная" transform="translate(-69.000000, -702.000000)">
            <g id="способы" transform="translate(65.000000, 646.000000)">
                <g id="icon_visa" transform="translate(4.000000, 56.000000)">
                    <polyline id="Path" fill="#005C9C" points="28.5378731 21 23 21 26.4612769 1 32 1 28.5378731 21"></polyline>
                    <path d="M18.4119166,0.363051399 L13.3548655,14.3163811 L12.7570653,11.3115745 L12.7576103,11.3126599 L10.9723841,2.1902473 C10.9723841,2.1902473 10.7571325,0.363051399 8.45639217,0.363051399 L0.0975444124,0.363051399 L0,0.706023722 C0,0.706023722 2.55686248,1.23567719 5.54749788,3.02597101 L10.1555177,20.6505155 L15.6817629,20.6505155 L24.120172,0.363051399 L18.4119166,0.363051399 Z M54.2935471,13.4741452 L57.0809195,5.8815412 L58.6487144,13.4741452 L54.2935471,13.4741452 Z M60.1298636,20.6505155 L65,20.6505155 L60.7538209,0.363051399 L56.4896587,0.363051399 C54.5202425,0.363051399 54.0412394,1.87495155 54.0412394,1.87495155 L46.131423,20.6505155 L51.659303,20.6505155 L52.7655329,17.6375687 L59.5080861,17.6375687 L60.1298636,20.6505155 Z M46.5461229,5.24172416 L47.3025009,0.884564695 C47.3025009,0.884564695 44.9668844,0 42.5320886,0 C39.9000243,0 33.6500977,1.14613536 33.6500977,6.71617954 C33.6500977,11.9579037 40.9855465,12.023025 40.9855465,14.7749438 C40.9855465,17.5268625 34.4059307,17.0351965 32.2348862,15.2991705 L31.445812,19.8538646 C31.445812,19.8538646 33.8135799,21 37.433077,21 C41.0520293,21 46.5128816,19.1326459 46.5128816,14.0542678 C46.5128816,8.77944024 39.1109499,8.28831691 39.1109499,5.99496085 C39.1109499,3.70160477 44.2764443,3.99627877 46.5461229,5.24172416 Z" id="Shape" fill="#005C9C" fill-rule="nonzero"></path>
                    <path d="M13,12 L11.1808552,2.83560489 C11.1808552,2.83560489 10.9615139,1 8.61706039,1 L0.0993977189,1 L0,1.34455073 C0,1.34455073 4.0941865,2.1781236 8.02178464,5.29870643 C11.7755756,8.28190511 13,12 13,12" id="Path" fill="#EE9F3F"></path>
                </g>
            </g>
        </g>
    </g>
</svg>