<?xml version="1.0" encoding="UTF-8"?>
<svg width="71px" height="20px" viewBox="0 0 71 20" version="1.1" xmlns="http://www.w3.org/2000/svg" xmlns:xlink="http://www.w3.org/1999/xlink">
    <!-- Generator: Sketch 52.5 (67469) - http://www.bohemiancoding.com/sketch -->
    <title>icon_mir</title>
    <desc>Created with Sketch.</desc>
    <defs>
        <linearGradient x1="0.008%" y1="50%" x2="100%" y2="50%" id="linearGradient-1">
            <stop stop-color="#00B4E6" offset="30%"></stop>
            <stop stop-color="#088CCB" offset="100%"></stop>
        </linearGradient>
    </defs>
    <g id="Page-1" stroke="none" stroke-width="1" fill="none" fill-rule="evenodd">
        <g id="Главная" transform="translate(-301.000000, -703.000000)">
            <g id="способы" transform="translate(65.000000, 646.000000)">
                <g id="icon_mir" transform="translate(236.000000, 57.000000)">
                    <path d="M18.7416155,1.91201366e-07 L18.7416155,0.00873381559 C18.7330184,0.00873381559 16.024941,1.91201366e-07 15.3027869,2.62882113 C14.6408125,5.03930146 12.775248,11.6943232 12.7236656,11.8777294 L12.2078413,11.8777294 C12.2078413,11.8777294 10.2992915,5.07423596 9.62871992,2.62008751 C8.9065659,-0.00873343318 6.18989136,1.91201366e-07 6.18989136,1.91201366e-07 L0,0 L0,20 L6.18989136,20 L6.18989136,8.12227087 L6.4478035,8.12227087 L6.70571564,8.12227087 L10.3164856,20 L14.6150213,20 L18.2257913,8.1310045 L18.7416155,8.1310045 L18.7416155,20 L24.9315069,20 L24.9315069,0 L18.7416155,1.91201366e-07 Z M42.8983418,5.32907052e-15 C42.8983418,5.32907052e-15 41.0347873,0.165938865 40.1604182,2.09606987 L35.6560924,11.8777293 L35.1261716,11.8777293 L35.1261716,5.32907052e-15 L28.7671233,5.32907052e-15 L28.7671233,20 L34.7728912,20 C34.7728912,20 36.7247657,19.8253276 37.5991348,17.9039301 L42.0151406,8.12227075 L42.5450613,8.12227075 L42.5450613,20 L48.9041097,20 L48.9041097,5.32907052e-15 L42.8983418,5.32907052e-15 Z M50.8219179,9.5238095 L50.8219179,20 L57.000092,20 L57.000092,13.8819048 L63.6931139,13.8819048 C66.6105851,13.8819048 69.0818547,12.0632381 70,9.5238095 L50.8219179,9.5238095 Z" id="Shape" fill="#4DB45E" fill-rule="nonzero"></path>
                    <path d="M64.1205376,0 L50,0 C50.7055859,4.17446808 53.5896682,7.52553191 57.3204536,8.61702127 C58.1671567,8.86595744 59.0579588,9 59.9752205,9 L70.8588829,9 C70.9559009,8.50212766 71,7.99468085 71,7.4680851 C71,3.34148936 67.9218815,0 64.1205376,0 Z" id="Path" fill="url(#linearGradient-1)"></path>
                </g>
            </g>
        </g>
    </g>
</svg>