<svg width="80" height="26" viewBox="0 0 80 26" fill="none" xmlns="http://www.w3.org/2000/svg">
<path d="M28.0637 10.8448V8.60018H33.7263C34.1308 8.60018 34.4197 8.46355 34.4197 7.97559C34.4197 7.27292 33.2255 7.13629 32.6285 6.94111L30.5483 6.297C28.6608 5.71144 27.9482 4.96974 27.9482 3.25211C27.9482 1.3393 28.8534 0.5 30.7602 0.5H37.1161V2.74463H31.6462C31.2032 2.74463 30.8372 2.80318 30.8372 3.27163C30.8372 3.81815 31.4536 4.01333 32.0892 4.20852L34.4775 4.95022C36.2302 5.49674 37.5013 6.04325 37.5013 8.17077C37.5013 9.92744 36.7309 10.8448 34.9012 10.8448H28.0637Z" fill="white"/>
<path d="M38.9457 10.8448V2.45185C38.9457 1.08556 39.6198 0.5 40.8717 0.5H45.032C47.4395 0.5 49.0382 1.59304 49.0382 4.22803V10.8448H46.0335V5.00877C46.0335 3.44729 45.4557 2.74463 43.9149 2.74463H42.6244C42.1429 2.74463 41.9503 2.93981 41.9503 3.42778V10.8448H38.9457Z" fill="white"/>
<path d="M51.28 0.5H57.5782C59.6005 0.5 60.7369 1.82726 60.7369 3.77911V8.89296C60.7369 10.1617 60.0628 10.8448 58.8108 10.8448H53.0905C51.2608 10.8448 50.5674 9.75177 50.5674 7.60473C50.5674 5.65288 51.2608 4.38418 53.0905 4.38418H57.7323V3.93526C57.7323 3.11548 57.27 2.68607 56.4418 2.68607H51.28V0.5ZM57.7323 6.49218H54.5158C53.938 6.49218 53.6105 6.90207 53.6105 7.62425C53.6105 8.28788 53.8802 8.73681 54.4965 8.73681H57.0581C57.5397 8.73681 57.7323 8.54162 57.7323 8.05366V6.49218Z" fill="white"/>
<path d="M64.4672 0.5H68.4734C71.7477 0.5 72.6914 2.54944 72.6914 5.6724C72.6914 8.79536 71.7477 10.8448 68.4734 10.8448H65.5458V14.163H62.5412V2.45185C62.5412 1.18315 63.2153 0.5 64.4672 0.5ZM65.5458 3.48633V8.60018H67.6645C69.4171 8.60018 69.6097 7.13629 69.6097 5.6724C69.6097 4.07189 69.4171 2.74463 67.6259 2.74463H66.3162C65.7577 2.74463 65.5458 2.93981 65.5458 3.48633Z" fill="white"/>
<path d="M37.2495 25.5H32.1647C28.6979 25.5 27.8697 23.4506 27.8697 20.3276C27.8697 17.2046 28.6979 15.1552 32.1647 15.1552H37.0376V17.3998H33.3204C31.3558 17.3998 30.9513 18.5709 30.9513 20.3276C30.9513 22.0843 31.3558 23.2554 33.3204 23.2554H37.2495V25.5Z" fill="white"/>
<path d="M38.4095 25.5V19.2541C38.4095 16.2092 39.9696 15.1552 42.9742 15.1552H44.9965V17.3998H43.8024C42.0304 17.3998 41.4141 18.3562 41.4141 20.1519V25.5H38.4095Z" fill="white"/>
<path d="M55.6416 25.5H49.4783C46.204 25.5 45.5877 24.0947 45.5877 20.2886C45.5877 15.8969 46.7433 15.0381 50.788 15.0381C54.1586 15.0381 55.9883 15.5846 55.9883 19.1955C55.9883 20.3666 55.6416 21.3426 54.3897 21.3426H48.6309C48.6309 22.6113 49.0353 23.3139 50.6725 23.3139H55.6416V25.5ZM48.6309 19.2346H52.3674C52.9067 19.2346 52.9259 18.8637 52.9259 18.61C52.9259 17.556 51.751 17.2242 50.788 17.2242C49.3435 17.2242 48.6309 17.7121 48.6309 19.2346Z" fill="white"/>
<path d="M65.2477 25.5H61.2223C57.9481 25.5 57.0236 23.4506 57.0236 20.3276C57.0236 17.2046 57.9481 15.1552 61.2223 15.1552H64.1692V15.1465H67.1738V23.5481C67.1738 24.8168 66.4997 25.5 65.2477 25.5ZM64.1692 22.4746V17.3998H62.0698C60.3171 17.3998 60.1052 18.8442 60.1052 20.3276C60.1052 21.9281 60.2978 23.2554 62.1083 23.2554H63.3988C63.9766 23.2554 64.1692 23.0602 64.1692 22.4746Z" fill="white"/>
<path d="M68.7859 25.5V15.1552H71.7906V25.5H68.7859ZM71.7906 14.0622H68.7859V11.837H71.7906V14.0622Z" fill="white"/>
<path d="M80 25.5H77.9006C75.6857 25.5 74.1063 24.6021 74.1063 22.0647V17.3998H72.6811V15.1552H74.1063V11.837H77.111V15.1552H80V17.3998H77.111V20.9522C77.111 22.5137 77.8043 23.2554 79.4415 23.2554H80V25.5Z" fill="white"/>
<path d="M0 4.69842C0 2.3797 1.85426 0.5 4.14161 0.5H20.5201C22.8074 0.5 24.6617 2.3797 24.6617 4.69843V21.3016C24.6617 23.6203 22.8074 25.5 20.52 25.5H4.1416C1.85426 25.5 0 23.6203 0 21.3016V4.69842Z" fill="white"/>
<path d="M12.978 16.2102L15.0465 14.4803L9.88738 5.51224L5.37916 9.28244L12.978 16.2102Z" fill="url(#paint0_linear_3952_442)"/>
<path d="M12.978 16.2102L15.0465 14.4803L9.88738 5.51224L5.37916 9.28244L12.978 16.2102Z" fill="url(#paint1_linear_3952_442)"/>
<path d="M17.4311 13.5383L19.3781 13.7276L21.272 6.4896L17.0285 6.07705L17.4311 13.5383Z" fill="url(#paint2_linear_3952_442)"/>
<path d="M17.4311 13.5383L19.3781 13.7276L21.272 6.4896L17.0285 6.07705L17.4311 13.5383Z" fill="url(#paint3_linear_3952_442)"/>
<path d="M11.512 20.3992L11.6988 18.4255L4.55872 16.5056L4.15175 20.8073L11.512 20.3992Z" fill="url(#paint4_linear_3952_442)"/>
<path d="M11.512 20.3992L11.6988 18.4255L4.55872 16.5056L4.15175 20.8073L11.512 20.3992Z" fill="url(#paint5_linear_3952_442)"/>
<defs>
<linearGradient id="paint0_linear_3952_442" x1="31.4102" y1="43.4642" x2="33.4481" y2="1.14075" gradientUnits="userSpaceOnUse">
<stop offset="0.137476" stop-color="#B4DDFF"/>
<stop offset="0.499315" stop-color="#5ABAFF"/>
<stop offset="1" stop-color="#367FFF"/>
</linearGradient>
<linearGradient id="paint1_linear_3952_442" x1="30" y1="-4.22561" x2="26.03" y2="38.7005" gradientUnits="userSpaceOnUse">
<stop offset="0.0003" stop-color="#987EFF" stop-opacity="0.63"/>
<stop offset="0.292451" stop-color="#987EFF" stop-opacity="0"/>
<stop offset="0.528171" stop-color="#987EFF" stop-opacity="0.0928668"/>
<stop offset="0.893939" stop-color="#987EFF" stop-opacity="0.5"/>
</linearGradient>
<linearGradient id="paint2_linear_3952_442" x1="31.4102" y1="43.4642" x2="33.4481" y2="1.14075" gradientUnits="userSpaceOnUse">
<stop offset="0.137476" stop-color="#B4DDFF"/>
<stop offset="0.499315" stop-color="#5ABAFF"/>
<stop offset="1" stop-color="#367FFF"/>
</linearGradient>
<linearGradient id="paint3_linear_3952_442" x1="30" y1="-4.22561" x2="26.03" y2="38.7005" gradientUnits="userSpaceOnUse">
<stop offset="0.0003" stop-color="#987EFF" stop-opacity="0.63"/>
<stop offset="0.292451" stop-color="#987EFF" stop-opacity="0"/>
<stop offset="0.528171" stop-color="#987EFF" stop-opacity="0.0928668"/>
<stop offset="0.893939" stop-color="#987EFF" stop-opacity="0.5"/>
</linearGradient>
<linearGradient id="paint4_linear_3952_442" x1="31.4102" y1="43.4642" x2="33.4481" y2="1.14075" gradientUnits="userSpaceOnUse">
<stop offset="0.137476" stop-color="#B4DDFF"/>
<stop offset="0.499315" stop-color="#5ABAFF"/>
<stop offset="1" stop-color="#367FFF"/>
</linearGradient>
<linearGradient id="paint5_linear_3952_442" x1="30" y1="-4.22561" x2="26.03" y2="38.7005" gradientUnits="userSpaceOnUse">
<stop offset="0.0003" stop-color="#987EFF" stop-opacity="0.63"/>
<stop offset="0.292451" stop-color="#987EFF" stop-opacity="0"/>
<stop offset="0.528171" stop-color="#987EFF" stop-opacity="0.0928668"/>
<stop offset="0.893939" stop-color="#987EFF" stop-opacity="0.5"/>
</linearGradient>
</defs>
</svg>
