<svg width="80" height="16" viewBox="0 0 80 16" fill="none" xmlns="http://www.w3.org/2000/svg">
<path d="M4.60126 5.6279L5.6978 4.71787L2.96287 0L0.572971 1.98341L4.60126 5.6279Z" fill="white"/>
<path d="M7.03963 4.30048L8.07178 4.40005L9.07579 0.59233L6.82625 0.375298L7.03963 4.30048Z" fill="white"/>
<path d="M3.90183 7.90982L4.00082 6.8715L0.21574 5.86148L0 8.12448L3.90183 7.90982Z" fill="white"/>
<path d="M5.64002 13.5246V11.8501H9.89546C10.1994 11.8501 10.4165 11.7482 10.4165 11.3842C10.4165 10.86 9.51913 10.7581 9.07043 10.6125L7.5072 10.132C6.08872 9.69513 5.55317 9.14182 5.55317 7.86046C5.55317 6.43349 6.23346 5.80737 7.66642 5.80737H12.4429V7.48187H8.33224C7.99933 7.48187 7.72432 7.52556 7.72432 7.87502C7.72432 8.28272 8.18749 8.42833 8.66514 8.57394L10.46 9.12726C11.7771 9.53496 12.7324 9.94267 12.7324 11.5298C12.7324 12.8403 12.1534 13.5246 10.7784 13.5246H5.64002Z" fill="white"/>
<path d="M13.8179 13.5246V7.26346C13.8179 6.2442 14.3245 5.80737 15.2653 5.80737H18.3918C20.201 5.80737 21.4024 6.62278 21.4024 8.5885V13.5246H19.1444V9.17094C19.1444 8.00607 18.7102 7.48187 17.5522 7.48187H16.5825C16.2206 7.48187 16.0759 7.62748 16.0759 7.99151V13.5246H13.8179Z" fill="white"/>
<path d="M23.0872 5.80737H27.8203C29.3401 5.80737 30.1941 6.79751 30.1941 8.2536V12.0686C30.1941 13.015 29.6875 13.5246 28.7466 13.5246H24.4478C23.0727 13.5246 22.5516 12.7092 22.5516 11.1075C22.5516 9.65145 23.0727 8.70499 24.4478 8.70499H27.9361V8.37009C27.9361 7.75853 27.5887 7.43819 26.9663 7.43819H23.0872V5.80737ZM27.9361 10.2776H25.5189C25.0846 10.2776 24.8386 10.5833 24.8386 11.1221C24.8386 11.6172 25.0412 11.9521 25.5044 11.9521H27.4295C27.7913 11.9521 27.9361 11.8065 27.9361 11.4424V10.2776Z" fill="white"/>
<path d="M32.9974 5.80737H36.0081C38.4687 5.80737 39.178 7.33627 39.178 9.66601C39.178 11.9958 38.4687 13.5246 36.0081 13.5246H33.808V16H31.55V7.26346C31.55 6.317 32.0566 5.80737 32.9974 5.80737ZM33.808 8.03519V11.8501H35.4002C36.7173 11.8501 36.8621 10.7581 36.8621 9.66601C36.8621 8.47202 36.7173 7.48187 35.3712 7.48187H34.387C33.9672 7.48187 33.808 7.62748 33.808 8.03519Z" fill="white"/>
<path d="M47.149 13.5246H43.3278C40.7224 13.5246 40.1 11.9958 40.1 9.66601C40.1 7.33627 40.7224 5.80737 43.3278 5.80737H46.9898V7.48187H44.1963C42.7199 7.48187 42.4159 8.35553 42.4159 9.66601C42.4159 10.9765 42.7199 11.8501 44.1963 11.8501H47.149V13.5246Z" fill="white"/>
<path d="M48.1655 13.5246V8.86516C48.1655 6.59366 49.3379 5.80737 51.5959 5.80737H53.1157V7.48187H52.2183C50.8867 7.48187 50.4235 8.19536 50.4235 9.53496V13.5246H48.1655Z" fill="white"/>
<path d="M61.2603 13.5246H56.6285C54.1679 13.5246 53.7047 12.4763 53.7047 9.63689C53.7047 6.36069 54.5732 5.72001 57.6128 5.72001C60.1458 5.72001 61.5208 6.12771 61.5208 8.82148C61.5208 9.69513 61.2603 10.4232 60.3195 10.4232H55.9917C55.9917 11.3696 56.2956 11.8938 57.5259 11.8938H61.2603V13.5246ZM55.9917 8.8506H58.7997C59.205 8.8506 59.2194 8.57394 59.2194 8.38465C59.2194 7.59836 58.3365 7.35083 57.6128 7.35083C56.5272 7.35083 55.9917 7.71485 55.9917 8.8506Z" fill="white"/>
<path d="M68.6241 13.5246H65.599C63.1384 13.5246 62.4436 11.9958 62.4436 9.66601C62.4436 7.33627 63.1384 5.80737 65.599 5.80737H67.8136V3.33202H70.0715V12.0686C70.0715 13.015 69.5649 13.5246 68.6241 13.5246ZM67.8136 11.2677V7.48187H66.2358C64.9187 7.48187 64.7595 8.55938 64.7595 9.66601C64.7595 10.86 64.9042 11.8501 66.2648 11.8501H67.2346C67.6688 11.8501 67.8136 11.7045 67.8136 11.2677Z" fill="white"/>
<path d="M71.4278 13.5246V5.80737H73.6858V13.5246H71.4278ZM73.6858 4.99196H71.4278V3.33202H73.6858V4.99196Z" fill="white"/>
<path d="M80 13.5246H78.4223C76.7578 13.5246 75.5709 12.8548 75.5709 10.9619V7.48187H74.4998V5.80737H75.5709V3.33202H77.8288V5.80737H80V7.48187H77.8288V10.132C77.8288 11.2968 78.3499 11.8501 79.5802 11.8501H80V13.5246Z" fill="white"/>
</svg>
